Coordinates
version=1
nRows=24
nColumns=24
inDegrees=yes

Units are S.I. units (second, meters, Newtons, ...)
Angles are in degrees.

endheader
time	pelvis_tilt	pelvis_list	pelvis_rotation	pelvis_tx	pelvis_ty	pelvis_tz	hip_flexion_r	hip_adduction_r	hip_rotation_r	knee_angle_r	ankle_angle_r	subtalar_angle_r	mtp_angle_r	hip_flexion_l	hip_adduction_l	hip_rotation_l	knee_angle_l	ankle_angle_l	subtalar_angle_l	mtp_angle_l	lumbar_extension	lumbar_bending	lumbar_rotation
      0.50400000	      1.49793692	      0.68593659	     10.52393536	     -0.86746417	      0.89326164	      0.29778986	     24.56974094	     -0.76825334	    -11.38214912	     -4.74635700	      3.49903746	      1.79133943	      0.63302589	    -18.81003646	      1.45211331	      4.44465648	     -8.48947110	     18.51051555	      2.64145929	      1.50606955	     -8.55128372	     -1.03498964	    -10.62589583
      0.50816667	      1.52171845	      0.58698906	     10.56105043	     -0.86132984	      0.89235792	      0.29810174	     24.60329486	     -0.52893126	    -11.16412040	     -5.23745026	      3.34947471	      1.68575332	      1.14356095	    -18.82531032	      1.21560718	      4.06137229	     -9.33638852	     18.72599037	      3.32499184	      2.33066253	     -8.53146150	     -0.87631971	    -10.68916854
      0.51233333	      1.53332937	      0.48744921	     10.58902218	     -0.85514379	      0.89149651	      0.29839084	     24.64307759	     -0.29177182	    -10.95058233	     -5.76767076	      3.05259588	      1.59071043	      4.17193776	    -18.87114119	      1.00086838	      3.90700018	    -10.08731987	     18.71814751	      3.45789135	      7.68705064	     -8.48912056	     -0.71256530	    -10.66799068
      0.51650000	      1.49861075	      0.41633870	     10.58701562	     -0.84896230	      0.89057259	      0.29872016	     24.77903403	     -0.08720146	    -10.69028068	     -6.46410023	      2.96290786	      1.52280291	      4.15441446	    -18.83846454	      0.83481117	      3.73211140	    -10.92865406	     18.78114663	      3.74045742	      7.77073465	     -8.40449581	     -0.60138968	    -10.52834280
      0.52066667	      1.47476510	      0.30984436	     10.60862384	     -0.84272800	      0.88971656	      0.29904396	     24.87178284	      0.15576516	    -10.43151712	     -7.12612336	      2.66601795	      1.31397882	      4.15852526	    -18.76297414	      0.60516806	      3.44389203	    -11.86471899	     18.85290166	      4.21052604	      7.90901911	     -8.30371018	     -0.43953425	    -10.44110740
      0.52483333	      1.47828112	      0.19978363	     10.60636288	     -0.83645098	      0.88893333	      0.29939302	     24.93427007	      0.41824885	    -10.15188840	     -7.81838488	      2.33646048	      1.03613677	      4.18872117	    -18.70927832	      0.37303289	      3.16463418	    -12.82415067	     18.85019596	      4.65926969	      8.09196492	     -8.23700959	     -0.26860515	    -10.34088074
      0.52900000	      1.46872135	      0.07843452	     10.60624192	     -0.83011961	      0.88817605	      0.29973508	     25.00436791	      0.68973128	     -9.86679934	     -8.52583758	      1.93364055	      0.70507358	      4.23822534	    -18.62444768	      0.12861594	      2.89265926	    -13.81601112	     18.79065867	      5.07076439	      8.31553586	     -8.14356608	     -0.08982727	    -10.23235010
      0.53316667	      1.53489003	     -0.05267447	     10.60646192	     -0.82376365	      0.88755922	      0.30009398	     24.98565635	      0.98877952	     -9.58458150	     -9.23871264	      1.49482682	      0.25417727	      4.35642353	    -18.58990343	     -0.15605786	      2.55069230	    -14.86430922	     18.72206595	      5.64055000	      8.76845066	     -8.14836024	      0.11755888	    -10.10543493
      0.53733333	      1.53239563	     -0.19121047	     10.58809957	     -0.81735817	      0.88689408	      0.30045285	     25.04939109	      1.28174232	     -9.30744099	     -9.98160837	      0.99515679	     -0.09658572	      5.57602149	    -18.46112622	     -0.42491478	      2.24117009	    -15.94829396	     18.46389033	      5.95404346	     13.21954406	     -8.04307465	      0.34081350	    -10.03050854
      0.54150000	      1.49985776	     -0.30010303	     10.55633032	     -0.81096470	      0.88625041	      0.30082455	     25.14839126	      1.54599188	     -8.96727215	    -10.74804613	      0.45303957	     -0.58073667	      5.56398956	    -18.31338793	     -0.63576244	      2.08598108	    -17.01124660	     18.17585543	      6.13780790	     13.28214780	     -7.90857756	      0.50120814	     -9.85669152
      0.54566667	      1.54459765	     -0.44225833	     10.52896493	     -0.80455887	      0.88573008	      0.30123605	     25.15344845	      1.86452357	     -8.62095050	    -11.49068677	     -0.10429301	     -1.19402362	      5.57490941	    -18.17113906	     -0.92729555	      1.76297221	    -18.22737270	     17.97226355	      6.59951150	     13.48009393	     -7.87454652	      0.71798063	     -9.67729379
      0.54983333	      1.54055705	     -0.57432022	     10.49050945	     -0.79812831	      0.88520089	      0.30163674	     25.22639854	      2.15816568	     -8.29025867	    -12.27970731	     -0.65575322	     -1.74690363	      5.59767941	    -17.97305428	     -1.18610939	      1.52759594	    -19.43866996	     17.62772526	      6.90794131	     13.72518581	     -7.77348907	      0.91921143	     -9.51814968
      0.55400000	      1.57875882	     -0.74185741	     10.43907502	     -0.79162808	      0.88477311	      0.30205759	     25.25056604	      2.50131448	     -7.96996034	    -13.06213000	     -1.21962901	     -2.36728129	      5.64833957	    -17.79493335	     -1.49976290	      1.22769783	    -20.69019951	     17.22177174	      7.29831553	     14.19228734	     -7.69960408	      1.19631179	     -9.33211311
      0.55816667	      1.58639033	     -0.87627496	     10.38521289	     -0.78516649	      0.88435821	      0.30248715	     25.31260004	      2.79903807	     -7.64326921	    -13.87060242	     -1.71062580	     -2.85972280	      6.17020154	    -17.54456358	     -1.77295123	      0.96138418	    -22.00069173	     16.65212007	      7.53572058	     18.80572764	     -7.61076165	      1.39814068	     -9.21485523
      0.56233333	      1.54930327	     -0.98861838	     10.32662705	     -0.77871593	      0.88394713	      0.30289306	     25.44524643	      3.05792340	     -7.32568325	    -14.74821079	     -2.13119511	     -3.36997324	      6.15601811	    -17.23587993	     -1.99216849	      0.83267164	    -23.32813248	     16.01971962	      7.67421598	     18.85046103	     -7.46467720	      1.57834788	     -9.02351681
      0.56650000	      1.55329105	     -1.11979953	     10.26828098	     -0.77229708	      0.88360635	      0.30336357	     25.52493614	      3.35294730	     -6.98509678	    -15.59731895	     -2.55689381	     -3.97339478	      6.13804389	    -16.89450950	     -2.26825576	      0.59025901	    -24.79776979	     15.50161933	      7.96398801	     18.98885589	     -7.37772140	      1.75698608	     -8.80643460
      0.57066667	      1.55587324	     -1.25505144	     10.20079964	     -0.76584696	      0.88332350	      0.30382447	     25.61315148	      3.64708133	     -6.67548371	    -16.47946313	     -2.86607286	     -4.48464036	      6.11932053	    -16.53672462	     -2.54222905	      0.38908694	    -26.27286933	     14.81164050	      8.19859148	     19.16721349	     -7.27985719	      1.96792091	     -8.62336947
      0.57483333	      1.64203390	     -1.45925364	     10.12299315	     -0.75932210	      0.88319207	      0.30434319	     25.58221964	      4.04194142	     -6.36148540	    -17.28532809	     -3.19399405	     -5.07448728	      6.03496890	    -16.23256436	     -2.93608613	      0.05593124	    -27.78956114	     14.09700486	      8.59177453	     20.06458828	     -7.26758276	      2.29236974	     -8.38790613
      0.57900000	      1.58686717	     -1.54930222	     10.06420076	     -0.75295339	      0.88291372	      0.30478677	     25.76351714	      4.26012589	     -6.10125296	    -18.27413232	     -3.24314662	     -5.42955278	      6.01155862	    -15.73404238	     -3.14581043	     -0.03037538	    -29.37800585	     13.28381645	      8.66700458	     20.28374798	     -7.11396975	      2.42151951	     -8.24972225
      0.58316667	      1.58434307	     -1.68502352	      9.99495656	     -0.74654911	      0.88273885	      0.30527845	     25.86627969	      4.54608017	     -5.84215934	    -19.20812827	     -3.28006250	     -5.80865236	      5.97341932	    -15.25447495	     -3.43723732	     -0.20871901	    -31.01082695	     12.43399426	      8.86435118	     20.56262686	     -7.01604105	      2.62547100	     -8.06715276
      0.58733333	      1.59709416	     -1.83095250	      9.92583246	     -0.74014384	      0.88263237	      0.30578168	     25.94198514	      4.84495768	     -5.59989910	    -20.12963946	     -3.23025724	     -6.15022429	      5.92381342	    -14.75406512	     -3.75201614	     -0.39540320	    -32.67946036	     11.51139303	      9.06034825	     20.87051541	     -6.93165922	      2.84238649	     -7.89088666
      0.59150000	      1.72157698	     -2.08132357	      9.85153223	     -0.73365520	      0.88271704	      0.30637033	     25.83649742	      5.29878377	     -5.33074429	    -20.89145524	     -3.23542002	     -6.63966432	      5.23403933	    -14.34043284	     -4.24136001	     -0.71054767	    -34.37106657	     10.51031987	      9.33778088	     24.29190389	     -6.96405454	      3.23337816	     -7.52023113
      0.59566667	      1.67790771	     -2.15871363	      9.79638667	     -0.72737143	      0.88260271	      0.30682757	     25.99390012	      5.49037511	     -5.17228302	    -21.90796607	     -2.88824419	     -6.73775134	      5.21715695	    -13.71485539	     -4.46230882	     -0.76387009	    -36.10478308	      9.42897223	      9.36276487	     24.42079900	     -6.83430090	      3.34054885	     -7.53479420
      0.59983333	      1.70814555	     -2.30760467	      9.73738999	     -0.72105212	      0.88262999	      0.30733131	     26.01716108	      5.78513106	     -5.00714469	    -22.78699992	     -2.57449263	     -6.89657578	      5.18516152	    -13.12935306	     -4.80056194	     -0.90592441	    -37.86975185	      8.32782769	      9.45159127	     24.55009420	     -6.77951310	      3.56336891	     -7.41055162
